<?xml version="1.0" encoding="UTF-8" standalone="no"?>
<!-- Created with Inkscape (http://www.inkscape.org/) -->

<svg
   id="svg5"
   version="1.1"
   viewBox="0 0 53.974999 9.5250003"
   height="36"
   width="204"
   xmlns="http://www.w3.org/2000/svg"
   xmlns:svg="http://www.w3.org/2000/svg">
  <defs
     id="defs2" />
  <g
     id="layer1">
    <path
       style="fill:none;stroke:#ffffff;stroke-width:0.265706;stroke-linecap:butt;stroke-linejoin:miter;stroke-miterlimit:4;stroke-dasharray:none;stroke-opacity:1"
       d="M 0,0.13249999 H 53.975"
       id="path42" />
    <path
       style="fill:none;stroke:#ffffff;stroke-width:0.265706;stroke-linecap:butt;stroke-linejoin:miter;stroke-miterlimit:4;stroke-dasharray:none;stroke-opacity:1"
       d="M 0,9.3932697 H 53.975"
       id="path42-0" />
    <path
       style="fill:none;stroke:#ffffff;stroke-width:0.265706;stroke-linecap:butt;stroke-linejoin:miter;stroke-miterlimit:4;stroke-dasharray:none;stroke-opacity:1"
       d="M 0,0.66201967 H 53.975"
       id="path42-4" />
    <path
       style="fill:none;stroke:#ffffff;stroke-width:0.265706;stroke-linecap:butt;stroke-linejoin:miter;stroke-miterlimit:4;stroke-dasharray:none;stroke-opacity:1"
       d="M 0,8.8641031 H 53.975"
       id="path42-7" />
    <text
       xml:space="preserve"
       style="font-size:10.5833px;line-height:1.25;font-family:nk;-inkscape-font-specification:nk;stroke-width:0.264583"
       x="46.04081"
       y="16.053703"
       id="text6582"><tspan
         id="tspan6580"
         style="stroke-width:0.264583"
         x="46.04081"
         y="16.053703" /></text>
    <g
       aria-label="GANYMEDE"
       transform="scale(0.98297177,1.0173232)"
       id="text8088"
       style="font-size:9.17922px;line-height:1.25;font-family:nk63;-inkscape-font-specification:nk63;letter-spacing:0.82613px;fill:#ffffff;fill-opacity:1;stroke-width:0.275377">
      <path
         d="M 5.0761087,3.2494455 Q 4.9751373,2.808843 4.7915529,2.5426456 4.6079685,2.267269 4.3601295,2.1204014 4.1214698,1.9643547 3.8277348,1.9184586 3.5431789,1.8633833 3.2402647,1.8633833 q -0.5323948,0 -0.9638181,0.1835844 Q 1.8450232,2.2213729 1.5421089,2.5701832 1.2391947,2.9098144 1.0739687,3.4146715 0.90874275,3.9195286 0.90874275,4.5712532 q 0,0.5232156 0.12850905,1.0464311 0.1376883,0.5232156 0.4314234,0.9454597 0.293735,0.4130649 0.7618753,0.6792623 0.4773194,0.2570182 1.1565817,0.2570182 0.247839,0 0.4681402,-0.027538 0.2294805,-0.027538 0.3947065,-0.091792 0.073434,-0.027538 0.1193299,-0.064254 0.055075,-0.036717 0.082613,-0.091792 0.036717,-0.064255 0.045896,-0.165226 0.018358,-0.1009714 0.018358,-0.2661974 V 5.9756739 q 0,-0.2294805 -0.027538,-0.3671688 Q 4.4702802,5.4616376 4.3693088,5.3882038 4.2683373,5.3147701 4.0572153,5.2780532 3.8552724,5.2413363 3.4789244,5.2137986 V 5.0026766 H 5.837984 v 0.211122 Q 5.6452204,5.2413363 5.5350697,5.2780532 5.4249191,5.3055908 5.3698438,5.3790246 5.3147684,5.4524584 5.29641,5.5901467 5.2872308,5.727835 5.2872308,5.9756739 v 0.624187 q 0,0.2478389 0.00918,0.4681402 0.00918,0.2111221 0.045896,0.3671688 -0.4314233,0.1193299 -0.9546389,0.2386598 -0.5232155,0.128509 -1.0464311,0.128509 -0.7251584,0 -1.3401661,-0.2203012 Q 1.3860622,7.352557 0.93628041,6.9486713 0.49567784,6.5447856 0.2478389,5.9848531 -4.8875809e-8,5.4249207 -4.8875809e-8,4.7456584 -4.8875809e-8,3.9654247 0.28455578,3.3779546 0.5691116,2.7813053 1.0464311,2.3774196 1.5237505,1.9735339 2.129579,1.7715911 2.7445868,1.560469 3.3963114,1.560469 q 0.6058286,0 1.0556103,0.091792 0.4589611,0.082613 0.6976208,0.1468675 0.018358,0.2386598 0.055075,0.5966493 0.036717,0.3488104 0.091792,0.8261299 z"
         id="path1226"
         style="fill:#ffffff;fill-opacity:1" />
      <path
         d="m 9.004812,5.0485727 h 1.624722 L 9.8217626,2.7904845 h -0.018358 z m 1.753231,2.4049557 0.293735,-0.036717 q 0.257018,-0.027538 0.302914,-0.1193299 0.05508,-0.091792 -0.01836,-0.3029142 -0.02754,-0.082613 -0.08261,-0.247839 Q 11.198646,6.5815025 11.116033,6.3612012 11.03342,6.1408999 10.932448,5.8930609 10.840656,5.645222 10.748864,5.3973831 H 8.8854821 Q 8.8487651,5.4891751 8.7936901,5.6544012 8.7386151,5.8196272 8.665181,6.0123908 8.600926,6.2051544 8.536672,6.3979181 8.472417,6.5906817 8.4265213,6.7375492 8.3622663,6.939492 8.3439083,7.0680011 q -0.018358,0.1285091 0.018358,0.2019429 0.045896,0.073434 0.1376883,0.1101506 0.091792,0.036717 0.2478389,0.045896 l 0.2753766,0.027538 v 0.211122 H 7.0588173 V 7.4535284 Q 7.2791186,7.4259907 7.4168069,7.3984531 7.5544952,7.3617362 7.6554666,7.269944 7.756438,7.1781518 7.839051,7.0037466 7.9308432,6.8201622 8.0501731,6.5172479 L 9.9410925,1.643082 10.152215,1.560469 10.803939,3.3045208 q 0.321273,0.8812052 0.624187,1.7256934 0.302914,0.8353091 0.569112,1.542109 0.11015,0.2937351 0.192763,0.458961 0.09179,0.165226 0.192764,0.2570182 0.100971,0.082613 0.23866,0.1193299 0.146867,0.027538 0.357989,0.045896 v 0.211122 h -2.221371 z"
         id="path1228"
         style="fill:#ffffff;fill-opacity:1" />
      <path
         d="m 19.386497,7.728905 h -0.23866 L 15.164056,2.8914559 h -0.01836 v 2.3407012 q 0,0.7251584 0.01836,1.1290441 0.02754,0.4038857 0.05508,0.6150077 0.03672,0.2386598 0.23866,0.3488104 0.201942,0.1101506 0.660903,0.1285091 v 0.211122 H 13.915687 V 7.4535284 Q 14.301214,7.4351704 14.484798,7.3250193 14.668383,7.2148687 14.7051,6.9762089 14.73264,6.7650869 14.751,6.3612012 14.77854,5.9573155 14.77854,5.2321571 V 3.2402663 q 0,-0.2478389 -0.0092,-0.4038857 0,-0.1652259 -0.01836,-0.2753766 Q 14.73262,2.4508534 14.6959,2.3774196 14.66836,2.3039856 14.60411,2.2213729 14.475614,2.0561469 14.28285,1.9918924 14.090087,1.9276378 13.796352,1.9092794 V 1.6981573 h 1.340166 l 3.864452,4.626327 h 0.01836 V 4.1306507 q 0,-0.7251584 -0.02754,-1.1290441 Q 18.97343,2.5977209 18.94589,2.3865988 18.909177,2.1479391 18.707235,2.0377885 18.505292,1.9276378 18.046331,1.9092794 V 1.6981573 h 2.203013 v 0.2111221 q -0.385528,0.018358 -0.569112,0.1285091 -0.183585,0.1101506 -0.220301,0.3488103 -0.02754,0.2111221 -0.05508,0.6150078 -0.01836,0.4038857 -0.01836,1.1290441 z"
         id="path1230"
         style="fill:#ffffff;fill-opacity:1" />
      <path
         d="m 24.536033,6.3336635 q 0,0.376348 0.01836,0.5966493 0.02754,0.2111221 0.11933,0.3212727 0.100971,0.1101507 0.293735,0.1468676 0.192763,0.036717 0.523215,0.055075 v 0.211122 h -2.643615 v -0.211122 q 0.312093,-0.018358 0.495678,-0.055075 0.183584,-0.036717 0.275376,-0.1468676 0.100972,-0.1101506 0.11933,-0.3212727 0.02754,-0.2203013 0.02754,-0.5966493 V 5.2872324 q 0,-0.1193299 -0.03672,-0.2203013 Q 23.691545,4.9659597 23.563036,4.7364792 23.250942,4.1949052 22.966387,3.6992273 22.69101,3.1943702 22.397275,2.6803339 22.250407,2.4233157 22.149436,2.2856274 22.057644,2.1387599 21.965852,2.0653261 21.874059,1.9918924 21.75473,1.9643547 21.6354,1.936817 21.433457,1.9092794 V 1.6981573 h 2.212192 v 0.2111221 l -0.422244,0.055075 Q 23.049,1.9918924 23.003103,2.074505 q -0.03672,0.082613 0.08261,0.2937351 0.312094,0.5782909 0.624187,1.1474025 0.321273,0.5691117 0.660904,1.1382233 0.293735,-0.5507532 0.58747,-1.1106856 0.293735,-0.5599325 0.550754,-1.1290441 0.119329,-0.247839 0.05507,-0.3396312 -0.05507,-0.091792 -0.321273,-0.1193298 L 24.875664,1.9092794 V 1.6981573 h 2.019429 v 0.2111221 q -0.229481,0.018358 -0.367169,0.064255 -0.137688,0.036717 -0.247839,0.1193299 -0.100971,0.082613 -0.192764,0.2294805 -0.09179,0.1376883 -0.238659,0.3671688 -0.312094,0.4864987 -0.58747,0.9729973 -0.275377,0.4864987 -0.569112,1.0372519 -0.05508,0.091792 -0.08261,0.1560468 -0.02754,0.064254 -0.0459,0.1193298 -0.01836,0.045896 -0.02754,0.1009714 0,0.045896 0,0.1193299 z"
         id="path1232"
         style="fill:#ffffff;fill-opacity:1" />
      <path
         d="m 29.419372,1.6981573 2.221372,4.7272984 2.184654,-4.7272984 h 1.514571 v 0.2111221 q -0.302914,0.027538 -0.477319,0.064255 -0.165226,0.027538 -0.247839,0.1376883 -0.08261,0.1101507 -0.100971,0.3212727 -0.0092,0.2111221 0,0.5966493 l 0.07343,3.3045193 q 0.0092,0.3855273 0.02754,0.6058285 0.02754,0.2111221 0.110151,0.3212728 0.08261,0.1009714 0.247839,0.1376883 0.174405,0.027538 0.477319,0.055075 v 0.211122 h -2.423314 v -0.211122 q 0.284556,-0.027538 0.449782,-0.055075 0.165226,-0.036717 0.238659,-0.1376883 0.07343,-0.1101507 0.08261,-0.3212728 0.01836,-0.2203012 0.01836,-0.6058285 l -0.03672,-3.6992257 h -0.03672 l -2.2489,4.9292407 h -0.22948 l -2.1204,-4.8007321 h -0.01836 l -0.09179,2.5610024 q -0.02754,0.6517246 -0.02754,1.0464311 0,0.3947065 0.02754,0.6058285 0.03672,0.2570182 0.220301,0.3488104 0.192764,0.091792 0.642546,0.1285091 v 0.211122 h -2.157117 v -0.211122 q 0.385527,-0.036717 0.550753,-0.1285091 0.174405,-0.091792 0.220302,-0.3488104 0.0459,-0.211122 0.08261,-0.6333662 0.03672,-0.4222441 0.07343,-1.1106856 l 0.100972,-1.9276363 q 0.02754,-0.458961 0.0092,-0.7251584 Q 28.767648,2.3131651 28.675856,2.1754768 28.593243,2.0286092 28.409658,1.9827131 28.226074,1.936817 27.904801,1.9092794 V 1.6981573 Z"
         id="path1234"
         style="fill:#ffffff;fill-opacity:1" />
      <path
         d="m 37.717384,3.0291442 q 0,-0.376348 -0.02754,-0.5874701 Q 37.671488,2.2213729 37.588875,2.1112222 37.506262,2.0010716 37.341036,1.9643547 37.18499,1.9276378 36.909613,1.9092794 V 1.6981573 h 4.020498 q 0,0.055075 0.0092,0.2019429 0.0092,0.1468675 0.01836,0.3396311 0.01836,0.1835844 0.03672,0.3947065 0.01836,0.211122 0.03672,0.4038857 L 40.80163,3.0658615 Q 40.728169,2.7170508 40.645556,2.5242871 40.572122,2.3315235 40.47115,2.2213729 40.361,2.102043 40.12234,2.0561469 39.88368,2.0010716 39.461436,2.0010716 h -0.69762 q -0.192764,0 -0.23866,0.045896 -0.03672,0.036717 -0.03672,0.2386597 v 2.0928622 h 0.927101 q 0.293735,0 0.458961,-0.018358 0.165226,-0.018358 0.257018,-0.091792 0.09179,-0.073434 0.11933,-0.2203013 0.03672,-0.1468675 0.07343,-0.4038857 h 0.22948 v 1.8174856 h -0.22948 q -0.03672,-0.2570182 -0.07343,-0.4038857 -0.02754,-0.1468675 -0.11933,-0.2203013 -0.09179,-0.073434 -0.257018,-0.091792 -0.165226,-0.027538 -0.458961,-0.027538 H 38.488436 V 6.342843 q 0,0.3947065 0.0459,0.6150078 0.05508,0.211122 0.183584,0.293735 0.128509,0.082613 0.367169,0.1009715 0.247839,0.00918 0.569112,0.00918 0.394706,0 0.697621,-0.045896 0.302914,-0.055075 0.458961,-0.2203013 0.119329,-0.1285091 0.22948,-0.3488104 0.110151,-0.2294805 0.211122,-0.5507532 l 0.229481,0.027538 q -0.01836,0.1009714 -0.06426,0.3029142 -0.03672,0.2019429 -0.09179,0.4222442 -0.0459,0.2203012 -0.09179,0.4222441 -0.0459,0.2019428 -0.07343,0.293735 h -4.341771 v -0.211122 q 0.312093,-0.018358 0.486499,-0.055075 0.183584,-0.036717 0.275376,-0.1468676 0.09179,-0.1101506 0.110151,-0.3212727 0.02754,-0.2203013 0.02754,-0.5966493 z"
         id="path1236"
         style="fill:#ffffff;fill-opacity:1" />
      <path
         d="m 44.399846,6.4897103 q 0,0.3212727 0.02754,0.4773194 0.02754,0.1560467 0.128509,0.2386597 0.183585,0.1560468 0.651725,0.1560468 0.725158,0 1.230015,-0.2294805 0.504857,-0.2294805 0.82613,-0.6058286 0.321273,-0.376348 0.46814,-0.8628467 0.146868,-0.4956779 0.146868,-1.0097142 0,-0.3488104 -0.0459,-0.6976207 Q 47.786979,3.6074351 47.65847,3.2953416 47.53914,2.9740689 47.318838,2.7170508 47.098537,2.4508534 46.758906,2.267269 46.492709,2.1204014 46.088823,2.0469677 q -0.394707,-0.082613 -0.94546,-0.082613 -0.34881,0 -0.477319,0.018358 -0.128509,0.018358 -0.183585,0.036717 -0.0459,0.018359 -0.06425,0.073434 -0.01836,0.045896 -0.01836,0.1835844 z m 1.009715,-4.791553 q 0.826129,0 1.468675,0.1835844 0.651724,0.1744052 1.092327,0.5874701 0.34881,0.3212727 0.569112,0.8169506 0.22948,0.4956779 0.22948,1.1290441 0,0.8536675 -0.302914,1.4686752 -0.302914,0.6058286 -0.835309,1.0097142 -0.523216,0.3947065 -1.239195,0.5874701 -0.7068,0.1835844 -1.514571,0.1835844 h -2.111221 v -0.211122 q 0.293735,-0.018358 0.46814,-0.055075 0.174406,-0.036717 0.257019,-0.1468676 0.09179,-0.1101506 0.11015,-0.3212727 0.02754,-0.2203013 0.02754,-0.5966493 V 3.0291442 q 0,-0.376348 -0.02754,-0.5874701 Q 43.582896,2.2213729 43.500283,2.1112222 43.41767,2.0010716 43.261623,1.9643547 43.105576,1.9276378 42.839379,1.9092794 V 1.6981573 Z"
         id="path1238"
         style="fill:#ffffff;fill-opacity:1" />
      <path
         d="m 51.146557,3.0291442 q 0,-0.376348 -0.02754,-0.5874701 Q 51.100661,2.2213729 51.018048,2.1112222 50.935435,2.0010716 50.770209,1.9643547 50.614162,1.9276378 50.338786,1.9092794 V 1.6981573 h 4.020498 q 0,0.055075 0.0092,0.2019429 0.0092,0.1468675 0.01836,0.3396311 0.01836,0.1835844 0.03672,0.3947065 0.01836,0.211122 0.03672,0.4038857 l -0.22948,0.027538 Q 54.157341,2.7170508 54.074728,2.5242871 54.001294,2.3315235 53.900323,2.2213729 53.790172,2.102043 53.551513,2.0561469 53.312853,2.0010716 52.890609,2.0010716 h -0.697621 q -0.192764,0 -0.23866,0.045896 -0.03672,0.036717 -0.03672,0.2386597 v 2.0928622 h 0.927102 q 0.293735,0 0.458961,-0.018358 0.165226,-0.018358 0.257018,-0.091792 0.09179,-0.073434 0.11933,-0.2203013 0.03672,-0.1468675 0.07343,-0.4038857 H 53.98293 V 5.4616376 H 53.753455 Q 53.716739,5.2046194 53.680022,5.0577519 53.652484,4.9108844 53.560692,4.8374506 53.4689,4.7640169 53.303674,4.7456584 53.138448,4.7181208 52.844713,4.7181208 h -0.927102 v 1.6247219 q 0,0.3947065 0.0459,0.6150078 0.05508,0.211122 0.183584,0.293735 0.128509,0.082613 0.367169,0.1009715 0.247839,0.00918 0.569111,0.00918 0.394707,0 0.697621,-0.045896 0.302914,-0.055075 0.458961,-0.2203013 0.11933,-0.1285091 0.229481,-0.3488104 0.11015,-0.2294805 0.211122,-0.5507532 l 0.22948,0.027538 q -0.01836,0.1009714 -0.06425,0.3029142 -0.03672,0.2019429 -0.09179,0.4222442 -0.0459,0.2203012 -0.09179,0.4222441 -0.0459,0.2019428 -0.07343,0.293735 h -4.341772 v -0.211122 q 0.312094,-0.018358 0.486499,-0.055075 0.183584,-0.036717 0.275377,-0.1468676 0.09179,-0.1101506 0.11015,-0.3212727 0.02754,-0.2203013 0.02754,-0.5966493 z"
         id="path1240"
         style="fill:#ffffff;fill-opacity:1" />
    </g>
  </g>
</svg>
